<mxfile host="Electron" modified="2024-02-25T01:42:40.494Z" agent="Mozilla/5.0 (Macintosh; Intel Mac OS X 10_15_7) AppleWebKit/537.36 (KHTML, like Gecko) draw.io/23.1.5 Chrome/120.0.6099.109 Electron/28.1.0 Safari/537.36" etag="ALmfFpdnUTRTzje2o5qU" version="23.1.5" type="device">
  <diagram name="페이지-1" id="_MCAayWyKY3snaTMzMiM">
    <mxGraphModel dx="1114" dy="894" grid="1" gridSize="10" guides="1" tooltips="1" connect="1" arrows="1" fold="1" page="1" pageScale="1" pageWidth="827" pageHeight="1169" math="0" shadow="0">
      <root>
        <mxCell id="0" />
        <mxCell id="1" parent="0" />
        <mxCell id="__a81zUpj0_T4tvh9lyG-5" style="edgeStyle=orthogonalEdgeStyle;rounded=0;orthogonalLoop=1;jettySize=auto;html=1;endArrow=block;endFill=1;" edge="1" parent="1" source="__a81zUpj0_T4tvh9lyG-1" target="__a81zUpj0_T4tvh9lyG-2">
          <mxGeometry relative="1" as="geometry" />
        </mxCell>
        <mxCell id="__a81zUpj0_T4tvh9lyG-1" value="리소스 소유자&lt;br&gt;(사용자)" style="sketch=0;outlineConnect=0;fontColor=#232F3E;gradientColor=none;fillColor=#232F3D;strokeColor=none;dashed=0;verticalLabelPosition=bottom;verticalAlign=top;align=center;html=1;fontSize=12;fontStyle=0;aspect=fixed;pointerEvents=1;shape=mxgraph.aws4.user;" vertex="1" parent="1">
          <mxGeometry x="110" y="160" width="40" height="40" as="geometry" />
        </mxCell>
        <mxCell id="__a81zUpj0_T4tvh9lyG-2" value="Client" style="sketch=0;pointerEvents=1;shadow=0;dashed=0;html=1;strokeColor=none;fillColor=#505050;labelPosition=center;verticalLabelPosition=bottom;verticalAlign=top;outlineConnect=0;align=center;shape=mxgraph.office.devices.mac_client;" vertex="1" parent="1">
          <mxGeometry x="240" y="160" width="40" height="40" as="geometry" />
        </mxCell>
        <mxCell id="__a81zUpj0_T4tvh9lyG-3" value="권한 부여 서버" style="sketch=0;aspect=fixed;pointerEvents=1;shadow=0;dashed=0;html=1;strokeColor=none;labelPosition=center;verticalLabelPosition=bottom;verticalAlign=top;align=center;fillColor=#00188D;shape=mxgraph.mscae.enterprise.database_server" vertex="1" parent="1">
          <mxGeometry x="390" y="75" width="38" height="50" as="geometry" />
        </mxCell>
        <mxCell id="__a81zUpj0_T4tvh9lyG-4" value="리소스 서버" style="sketch=0;aspect=fixed;pointerEvents=1;shadow=0;dashed=0;html=1;strokeColor=none;labelPosition=center;verticalLabelPosition=bottom;verticalAlign=top;align=center;fillColor=#00188D;shape=mxgraph.mscae.enterprise.database_server" vertex="1" parent="1">
          <mxGeometry x="390" y="235" width="38" height="50" as="geometry" />
        </mxCell>
        <mxCell id="__a81zUpj0_T4tvh9lyG-6" style="edgeStyle=orthogonalEdgeStyle;rounded=0;orthogonalLoop=1;jettySize=auto;html=1;entryX=0;entryY=0.5;entryDx=0;entryDy=0;entryPerimeter=0;endArrow=block;endFill=1;" edge="1" parent="1" source="__a81zUpj0_T4tvh9lyG-2" target="__a81zUpj0_T4tvh9lyG-3">
          <mxGeometry relative="1" as="geometry" />
        </mxCell>
        <mxCell id="__a81zUpj0_T4tvh9lyG-7" style="edgeStyle=orthogonalEdgeStyle;rounded=0;orthogonalLoop=1;jettySize=auto;html=1;entryX=0;entryY=0.5;entryDx=0;entryDy=0;entryPerimeter=0;endArrow=block;endFill=1;" edge="1" parent="1" source="__a81zUpj0_T4tvh9lyG-2" target="__a81zUpj0_T4tvh9lyG-4">
          <mxGeometry relative="1" as="geometry" />
        </mxCell>
      </root>
    </mxGraphModel>
  </diagram>
</mxfile>
